<?xml version="1.0" standalone="no"?>
<!DOCTYPE svg PUBLIC "-//W3C//DTD SVG 20010904//EN"
 "http://www.w3.org/TR/2001/REC-SVG-20010904/DTD/svg10.dtd">
<svg version="1.0" xmlns="http://www.w3.org/2000/svg"
 width="3279.000000pt" height="3204.000000pt" viewBox="0 0 3279.000000 3204.000000"
 preserveAspectRatio="xMidYMid meet">
<metadata>
Created by potrace 1.10, written by Peter Selinger 2001-2011
</metadata>
<g transform="translate(0.000000,3204.000000) scale(0.100000,-0.100000)"
fill="#0000ff" stroke="none">
<path d="M9391 32029 c-1 -18 -37 -68 -89 -124 -21 -22 -60 -69 -87 -105 -27
-36 -54 -69 -61 -75 -20 -17 -224 -294 -224 -304 0 -5 -7 -11 -15 -15 -8 -3
-15 -12 -15 -21 0 -8 -4 -15 -9 -15 -7 0 -63 -78 -106 -148 -5 -9 -29 -42 -52
-74 -24 -31 -43 -61 -43 -67 0 -6 -5 -11 -10 -11 -6 0 -15 -10 -20 -22 -15
-34 -33 -62 -47 -71 -7 -4 -13 -15 -13 -24 0 -8 -13 -32 -30 -53 -16 -21 -30
-41 -30 -45 0 -4 -13 -24 -28 -44 -16 -20 -32 -44 -35 -53 -4 -10 -11 -18 -17
-18 -5 0 -10 -5 -10 -11 0 -6 -26 -50 -58 -98 -32 -47 -61 -93 -65 -101 -4 -8
-16 -28 -27 -45 -11 -16 -24 -39 -30 -50 -6 -11 -19 -33 -30 -50 -11 -16 -23
-38 -26 -47 -3 -9 -12 -19 -20 -22 -8 -3 -14 -14 -14 -25 0 -11 -5 -23 -11
-26 -5 -4 -14 -17 -20 -28 -11 -27 -32 -60 -41 -67 -4 -3 -12 -17 -18 -30 -5
-14 -19 -38 -30 -55 -10 -16 -29 -50 -42 -75 -13 -25 -25 -47 -29 -50 -11 -11
-49 -91 -49 -106 0 -17 -45 -16 -145 5 -63 12 -470 13 -550 0 -33 -5 -105 -13
-160 -17 -55 -4 -110 -13 -122 -20 -12 -6 -46 -12 -76 -12 -30 0 -74 -7 -97
-15 -23 -8 -61 -15 -84 -15 -23 0 -51 -7 -62 -15 -10 -8 -39 -15 -64 -15 -25
0 -54 -7 -64 -15 -11 -8 -38 -15 -60 -15 -23 0 -50 -7 -60 -15 -11 -8 -34 -15
-51 -15 -17 0 -40 -7 -51 -15 -10 -8 -33 -15 -50 -15 -17 0 -37 -7 -44 -15 -7
-8 -20 -15 -30 -15 -10 0 -23 -7 -30 -15 -7 -8 -20 -15 -30 -15 -10 0 -23 -7
-30 -15 -7 -8 -23 -15 -37 -15 -13 0 -26 -7 -29 -15 -4 -8 -12 -15 -20 -15
-16 0 -92 -39 -100 -51 -3 -5 -16 -9 -29 -9 -13 0 -26 -4 -29 -9 -5 -8 -51
-32 -106 -55 -8 -3 -35 -17 -59 -31 -24 -14 -50 -25 -56 -25 -7 0 -18 -7 -25
-15 -7 -8 -20 -15 -30 -15 -10 0 -23 -7 -30 -15 -7 -8 -20 -15 -30 -15 -10 0
-23 -7 -30 -15 -7 -8 -20 -15 -30 -15 -10 0 -23 -7 -30 -15 -7 -8 -20 -15 -30
-15 -10 0 -23 -7 -30 -15 -7 -8 -20 -15 -30 -15 -10 0 -23 -7 -30 -15 -7 -8
-23 -15 -35 -15 -12 0 -28 -7 -35 -15 -7 -8 -21 -15 -31 -15 -10 0 -20 -4 -23
-9 -7 -11 -88 -51 -103 -51 -6 0 -16 -7 -23 -15 -7 -8 -20 -15 -30 -15 -10 0
-23 -7 -30 -15 -7 -8 -20 -15 -30 -15 -10 0 -23 -7 -30 -15 -7 -8 -20 -15 -30
-15 -10 0 -23 -7 -30 -15 -7 -8 -20 -15 -30 -15 -10 0 -23 -7 -30 -15 -7 -8
-23 -15 -37 -15 -13 0 -26 -7 -29 -15 -4 -8 -14 -15 -24 -15 -10 0 -23 -7 -30
-15 -7 -8 -23 -15 -37 -15 -13 0 -26 -7 -29 -15 -4 -8 -14 -15 -24 -15 -10 0
-23 -7 -30 -15 -7 -8 -19 -15 -27 -15 -13 0 -48 -15 -93 -41 -8 -5 -22 -12
-30 -15 -8 -3 -22 -10 -30 -15 -8 -5 -22 -12 -30 -15 -8 -3 -22 -10 -30 -15
-8 -5 -22 -12 -30 -15 -8 -3 -22 -10 -30 -15 -8 -5 -21 -11 -27 -14 -33 -13
-40 -16 -68 -35 -16 -11 -39 -24 -50 -30 -45 -24 -68 -39 -74 -47 -3 -5 -35
-31 -71 -58 -86 -65 -132 -106 -280 -255 -123 -123 -250 -262 -250 -274 0 -3
-8 -14 -17 -25 -51 -54 -73 -80 -73 -86 0 -10 -58 -83 -96 -120 -55 -55 -172
-155 -180 -155 -5 0 -22 -14 -38 -30 -16 -17 -34 -30 -39 -30 -5 0 -26 -13
-47 -30 -21 -16 -41 -30 -45 -30 -4 0 -24 -13 -45 -30 -21 -16 -44 -30 -52
-30 -8 0 -19 -5 -25 -11 -6 -6 -21 -16 -32 -23 -35 -19 -225 -114 -241 -120
-8 -4 -35 -17 -59 -31 -24 -14 -52 -25 -61 -25 -10 0 -23 -7 -30 -15 -7 -8
-23 -15 -35 -15 -12 0 -28 -7 -35 -15 -7 -8 -22 -15 -34 -15 -12 0 -31 -7 -42
-15 -10 -8 -28 -15 -40 -15 -11 0 -29 -7 -40 -15 -10 -8 -37 -15 -59 -15 -22
0 -49 -7 -59 -15 -11 -8 -32 -15 -47 -15 -15 0 -29 -7 -33 -15 -3 -8 -16 -15
-29 -15 -13 0 -28 -5 -34 -11 -13 -13 -46 -33 -80 -48 -37 -17 -162 -146 -178
-184 -8 -20 -19 -38 -25 -42 -5 -3 -10 -17 -10 -29 0 -13 -7 -29 -15 -36 -9
-7 -15 -29 -15 -54 0 -23 -5 -47 -11 -53 -20 -20 5 -301 29 -325 7 -7 12 -26
12 -44 0 -17 7 -37 15 -44 8 -7 15 -20 15 -30 0 -10 24 -64 52 -120 66 -127
73 -139 87 -153 6 -6 11 -21 11 -33 0 -12 7 -24 15 -28 8 -3 15 -14 15 -24 0
-11 7 -25 15 -32 8 -7 15 -20 15 -30 0 -10 7 -23 15 -30 8 -7 15 -20 15 -30 0
-10 7 -23 15 -30 8 -7 15 -21 15 -31 0 -10 6 -22 13 -26 6 -4 22 -28 35 -53
26 -52 32 -61 90 -148 23 -35 42 -66 42 -68 0 -3 20 -32 45 -64 25 -32 45 -61
45 -65 0 -7 54 -68 120 -134 54 -56 116 -101 137 -101 22 0 63 -26 83 -54 37
-53 233 -234 268 -247 12 -5 22 -13 22 -19 0 -5 6 -10 14 -10 8 0 16 -7 20
-15 3 -8 14 -15 24 -15 11 0 25 -7 32 -15 7 -8 18 -15 25 -15 7 0 18 -7 25
-15 7 -8 20 -15 30 -15 10 0 23 -7 30 -15 7 -8 23 -15 35 -15 12 0 28 -7 35
-15 7 -8 24 -15 39 -15 14 0 35 -7 45 -15 11 -8 40 -15 65 -15 25 0 55 -7 65
-15 11 -8 41 -15 67 -15 25 0 63 -7 82 -15 20 -8 47 -15 59 -15 13 0 35 -6 50
-14 51 -27 52 13 3 67 -19 21 -42 51 -50 68 -9 16 -19 29 -24 29 -5 0 -12 8
-15 18 -9 24 -32 63 -43 71 -10 8 -30 39 -42 68 -6 11 -15 24 -20 28 -6 3 -11
14 -11 24 0 10 -7 24 -15 31 -8 7 -15 20 -15 30 0 10 -7 23 -15 30 -8 7 -15
25 -15 39 0 15 -7 36 -15 47 -8 10 -15 30 -15 44 0 14 -7 38 -15 54 -18 35
-19 53 -2 59 27 11 332 -6 352 -19 11 -8 42 -14 70 -14 27 -1 61 -7 75 -15 14
-8 41 -14 61 -15 20 0 42 -7 49 -15 7 -8 27 -15 45 -15 18 0 38 -7 45 -15 7
-8 24 -15 39 -15 14 0 35 -7 45 -15 11 -8 30 -15 42 -15 12 0 27 -7 34 -15 7
-8 20 -15 29 -15 14 0 116 -45 161 -71 8 -5 22 -12 30 -15 8 -3 22 -10 30 -15
8 -5 22 -12 30 -15 8 -3 22 -10 30 -15 8 -5 22 -12 30 -15 8 -3 22 -10 30 -15
8 -5 25 -13 37 -18 11 -6 24 -15 28 -20 3 -6 14 -11 25 -11 10 0 20 -7 24 -15
3 -8 15 -15 26 -15 11 0 20 -4 20 -10 0 -5 15 -16 34 -24 19 -8 37 -24 41 -35
3 -12 11 -21 16 -21 5 0 9 -15 9 -32 0 -18 7 -42 15 -52 8 -11 15 -34 15 -50
0 -17 7 -40 15 -50 8 -11 15 -36 15 -56 0 -20 7 -45 15 -56 8 -10 15 -35 15
-54 1 -19 7 -53 15 -75 8 -22 15 -67 15 -100 0 -33 7 -73 15 -89 22 -41 21
-382 0 -410 -8 -11 -15 -38 -15 -60 0 -23 -7 -50 -15 -60 -8 -11 -15 -27 -15
-37 0 -9 -7 -19 -15 -23 -8 -3 -15 -12 -15 -20 0 -9 -25 -40 -55 -71 l-55 -55
-126 0 c-88 0 -135 4 -161 15 -19 8 -44 15 -55 15 -18 0 -49 14 -98 41 -8 5
-22 12 -30 16 -8 4 -50 33 -92 65 -42 32 -79 58 -82 58 -3 0 -20 14 -38 30
-18 17 -36 30 -40 30 -5 0 -8 -100 -8 -222 1 -175 4 -228 15 -248 8 -14 15
-38 15 -55 0 -16 7 -39 15 -49 8 -11 15 -30 15 -42 0 -12 7 -27 15 -34 8 -7
15 -19 15 -26 0 -14 26 -66 61 -119 10 -16 22 -37 26 -45 13 -28 123 -169 140
-178 12 -7 16 -28 18 -98 1 -49 7 -99 13 -111 7 -12 12 -46 12 -75 0 -32 6
-62 15 -74 8 -10 15 -30 15 -42 0 -21 13 -52 41 -102 5 -8 11 -21 14 -27 20
-51 37 -78 81 -131 87 -102 221 -212 258 -212 8 0 19 -7 26 -15 7 -8 26 -15
43 -15 17 0 39 -8 49 -17 16 -14 46 -17 223 -17 177 0 207 3 223 17 10 9 32
17 49 17 17 0 36 7 43 15 7 8 23 15 35 15 12 0 28 7 35 15 7 8 17 15 22 15 30
0 268 215 268 242 0 6 14 27 30 48 17 21 30 42 30 48 0 5 7 15 15 22 8 7 15
20 15 30 0 10 7 23 15 30 8 7 15 23 15 35 0 13 7 25 15 29 8 3 15 12 15 21 0
8 14 34 30 57 17 22 30 47 30 55 0 7 5 13 10 13 6 0 15 10 20 23 15 33 33 61
48 70 6 4 12 13 12 18 0 6 20 37 45 69 25 32 45 62 45 67 0 5 8 15 18 24 9 8
33 35 52 59 69 86 196 213 272 271 42 33 80 59 84 59 4 0 16 8 27 18 17 15 38
17 151 15 93 -1 142 -6 168 -17 21 -9 50 -16 65 -16 15 0 37 -7 47 -15 11 -8
34 -15 52 -15 17 0 37 -7 44 -15 7 -8 24 -15 39 -15 14 0 35 -7 45 -15 11 -8
30 -15 42 -15 12 0 27 -7 34 -15 7 -8 23 -15 35 -15 12 0 28 -7 35 -15 7 -8
23 -15 35 -15 12 0 28 -7 35 -15 7 -8 20 -15 30 -15 10 0 23 -7 30 -15 7 -8
20 -15 30 -15 10 0 23 -7 30 -15 7 -8 23 -15 35 -15 12 0 28 -7 35 -15 7 -8
21 -15 31 -15 10 0 21 -5 24 -11 4 -5 17 -14 28 -20 28 -12 59 -31 72 -45 5
-6 30 -26 55 -44 83 -63 198 -195 214 -247 4 -13 12 -23 17 -23 5 0 9 -13 9
-29 0 -16 7 -34 15 -41 9 -7 15 -29 15 -54 0 -23 5 -47 12 -54 6 -6 13 -56 16
-115 4 -82 1 -110 -12 -135 -9 -17 -16 -44 -16 -59 0 -15 -7 -37 -15 -47 -8
-11 -15 -32 -15 -47 0 -14 -7 -32 -15 -39 -8 -7 -15 -21 -15 -31 0 -10 -4 -20
-9 -24 -6 -3 -20 -27 -33 -53 -13 -26 -27 -50 -31 -53 -4 -3 -16 -22 -27 -42
-11 -19 -34 -51 -52 -69 -18 -18 -58 -62 -88 -97 -142 -166 -589 -614 -775
-777 -44 -39 -100 -90 -124 -113 -24 -23 -78 -71 -120 -107 -97 -84 -189 -165
-210 -185 -9 -9 -23 -20 -32 -25 -16 -8 -113 -90 -148 -125 -9 -8 -36 -30 -61
-49 -25 -18 -49 -38 -55 -45 -5 -6 -39 -33 -75 -59 -36 -27 -69 -54 -75 -60
-5 -7 -39 -34 -75 -61 -36 -27 -78 -62 -94 -77 -17 -15 -35 -28 -40 -28 -6 0
-29 -17 -51 -37 -22 -20 -61 -49 -87 -65 -27 -16 -48 -33 -48 -37 0 -4 -21
-20 -47 -37 -26 -16 -63 -44 -82 -61 -20 -18 -40 -33 -44 -33 -5 0 -35 -20
-67 -45 -32 -25 -62 -45 -67 -45 -4 0 -21 -14 -37 -30 -16 -17 -34 -30 -39
-30 -5 0 -26 -12 -46 -27 -48 -37 -72 -52 -93 -59 -10 -4 -18 -10 -18 -13 0
-4 -20 -17 -44 -29 -24 -12 -49 -29 -56 -37 -7 -8 -21 -15 -31 -15 -11 0 -19
-6 -19 -14 0 -20 36 -26 57 -10 10 7 26 14 35 14 10 0 32 9 50 20 18 11 42 20
53 20 11 0 29 7 39 15 11 8 30 15 42 15 12 0 27 7 34 15 7 8 22 15 34 15 12 0
31 7 42 15 10 8 31 15 45 15 15 0 32 7 39 15 7 8 23 15 35 15 12 0 28 7 35 15
7 8 21 15 32 15 11 0 32 6 46 13 15 8 42 21 60 30 19 9 39 17 47 17 7 0 18 7
25 15 7 8 21 15 31 15 11 0 45 14 76 30 31 17 64 30 73 30 10 0 23 7 30 15 7
8 20 15 30 15 10 0 23 7 30 15 7 8 20 15 30 15 10 0 23 7 30 15 7 8 20 15 30
15 10 0 23 7 30 15 7 8 20 15 30 15 10 0 23 7 30 15 7 8 20 15 30 15 10 0 23
7 30 15 7 8 21 15 31 15 10 0 21 5 24 11 4 5 17 15 28 20 12 5 49 25 82 44 33
19 69 39 80 45 11 6 34 19 50 30 17 11 39 24 50 30 11 6 34 19 50 30 17 11 37
23 45 27 8 3 31 18 50 33 19 15 45 30 58 34 12 4 22 12 22 17 0 5 5 9 11 9 6
0 37 20 69 45 32 25 61 45 65 45 4 0 33 20 65 45 32 25 63 45 69 45 5 0 14 6
18 14 4 7 31 29 58 47 28 18 63 45 79 61 17 15 34 28 39 28 11 0 89 60 100 77
4 7 14 13 20 13 7 0 27 13 45 29 17 16 60 51 94 77 35 26 68 52 73 58 6 7 37
33 70 58 33 26 76 62 97 80 20 18 67 58 104 88 37 30 85 71 106 91 21 20 73
68 115 105 158 141 233 212 433 414 218 219 328 334 425 444 33 37 76 85 95
105 19 21 60 68 90 105 30 37 70 84 88 104 18 21 54 64 80 97 25 33 51 65 58
70 6 6 33 39 60 75 26 36 54 70 60 75 7 6 23 28 37 50 14 22 41 58 61 80 20
22 36 45 36 51 0 6 13 24 30 40 16 16 30 33 30 37 0 5 20 35 45 67 25 32 45
63 45 68 0 5 13 22 30 38 16 16 30 33 30 38 0 4 12 25 28 45 36 48 51 72 58
94 4 9 10 17 15 17 5 0 14 10 19 23 15 33 33 61 48 70 6 4 12 15 12 24 0 8 12
32 28 52 31 42 49 70 59 91 3 8 19 31 35 51 15 20 28 44 28 53 0 9 7 19 15 22
8 4 15 11 15 16 0 6 14 30 30 55 17 24 30 50 30 57 0 6 5 17 11 23 12 12 33
46 48 80 5 11 15 24 20 28 6 3 11 15 11 26 0 10 4 19 10 19 5 0 12 11 16 25 3
13 12 29 20 36 8 6 14 19 14 29 0 10 7 23 15 30 8 7 15 20 15 30 0 10 7 20 15
24 8 3 15 17 15 31 0 14 4 25 9 25 10 0 81 135 81 155 0 7 7 18 15 25 8 7 15
23 15 35 0 12 7 28 15 35 8 7 15 20 15 30 0 10 7 23 15 30 8 7 15 23 15 35 0
13 7 25 15 29 8 3 15 16 15 29 0 13 7 32 15 43 8 10 15 29 15 40 0 12 7 27 15
34 8 7 15 21 15 32 0 10 8 31 18 45 15 24 17 52 14 258 -2 126 -8 250 -14 275
-6 25 -13 104 -17 177 -4 85 -10 137 -18 145 -9 8 -13 53 -13 147 -1 75 -5
156 -10 181 -6 25 -13 124 -16 220 -3 96 -9 184 -14 195 -5 11 -14 99 -20 195
-6 96 -15 207 -20 245 -5 39 -9 110 -9 158 -1 49 -6 107 -11 130 -6 23 -15
107 -20 187 -5 80 -14 190 -19 245 -21 218 -21 224 -5 240 9 9 33 15 58 15 27
0 48 6 56 15 7 8 23 15 35 15 12 0 28 7 35 15 7 8 20 15 30 15 10 0 20 7 24
15 3 8 12 15 19 15 8 0 45 29 82 64 60 57 79 81 102 126 4 8 13 21 20 28 7 7
13 21 13 30 0 9 7 26 15 36 8 11 15 31 15 45 0 14 7 35 15 45 11 15 15 51 15
151 0 100 -4 136 -15 151 -8 10 -15 31 -15 45 0 15 -7 32 -15 39 -8 7 -15 19
-15 27 0 40 -145 233 -175 233 -4 0 -24 14 -45 30 -21 17 -45 30 -53 30 -8 0
-20 7 -27 15 -7 8 -22 15 -34 15 -12 0 -27 5 -34 12 -37 37 -329 39 -407 3
-92 -42 -114 -53 -155 -79 -57 -36 -137 -117 -150 -150 -12 -33 -33 -33 -79 2
-20 16 -43 32 -51 36 -8 4 -24 12 -35 19 -11 7 -38 24 -60 37 -23 14 -50 31
-60 38 -11 7 -32 17 -47 23 -16 6 -28 14 -28 19 0 4 -13 10 -30 14 l-30 6 0
80 c0 81 0 81 -39 118 -21 20 -50 45 -64 54 -29 20 -29 2 -1 288 8 85 15 184
17 220 l2 65 67 3 c43 2 71 8 78 17 7 8 18 15 26 15 43 0 184 142 184 185 0 9
7 23 15 31 12 12 15 41 15 128 0 89 -3 116 -15 126 -8 7 -15 21 -15 32 0 41
-143 188 -183 188 -8 0 -20 7 -27 15 -10 12 -39 15 -140 15 -101 0 -130 -3
-140 -15 -7 -8 -19 -15 -27 -15 -18 0 -94 -58 -126 -96 -46 -55 -77 -124 -77
-173 0 -26 -6 -53 -12 -59 -10 -10 -10 -17 0 -32 6 -11 12 -39 12 -63 0 -28 9
-60 25 -88 14 -24 28 -51 32 -59 14 -33 90 -98 133 -115 8 -4 24 -11 35 -17
11 -6 34 -14 50 -18 l30 -6 -3 -74 c-2 -41 -8 -113 -14 -160 -6 -47 -13 -139
-17 -205 l-6 -119 -31 -7 c-75 -15 -144 -97 -144 -172 0 -58 36 -125 86 -159
32 -22 50 -27 100 -28 43 0 65 5 74 15 7 8 18 15 25 15 7 0 15 7 19 15 6 17
56 21 56 5 0 -6 8 -14 18 -17 9 -4 33 -18 52 -31 19 -13 44 -28 55 -33 22 -11
38 -20 100 -60 22 -14 61 -36 88 -48 51 -25 60 -48 32 -85 -8 -11 -15 -29 -15
-40 0 -12 -7 -30 -15 -40 -22 -29 -22 -308 0 -326 8 -7 15 -27 15 -45 0 -18 7
-38 15 -45 8 -7 15 -18 15 -26 0 -37 158 -224 210 -247 8 -4 33 -18 55 -32 22
-13 50 -24 61 -25 12 0 27 -7 34 -15 7 -9 29 -15 51 -15 21 0 41 -4 44 -10 3
-5 30 -10 60 -10 86 0 85 1 85 -104 0 -50 7 -140 15 -201 8 -60 15 -154 15
-207 0 -53 4 -99 9 -102 4 -3 12 -65 15 -138 4 -73 14 -189 22 -258 7 -69 14
-161 14 -205 0 -44 5 -96 10 -117 6 -20 15 -98 20 -175 5 -76 14 -154 19 -173
14 -46 14 -137 0 -146 -15 -9 -29 14 -29 49 0 15 -7 39 -16 52 -9 13 -13 29
-9 35 3 5 -1 24 -9 42 -9 17 -16 41 -16 52 0 12 -7 34 -15 50 -8 15 -15 41
-15 56 0 15 -7 33 -15 40 -8 7 -15 25 -15 39 0 15 -7 36 -15 47 -8 10 -15 31
-15 46 0 15 -7 33 -15 42 -8 8 -15 26 -15 39 0 14 -7 30 -15 37 -8 7 -15 22
-15 34 0 12 -7 31 -15 42 -8 10 -15 29 -15 40 0 12 -7 27 -15 34 -8 7 -15 20
-15 29 0 10 -7 26 -15 37 -8 10 -15 29 -15 40 0 12 -7 27 -15 34 -8 7 -15 20
-15 29 0 9 -7 25 -15 35 -8 11 -15 27 -15 37 0 9 -7 22 -15 29 -8 7 -15 20
-15 30 0 10 -7 23 -15 30 -8 7 -15 23 -15 35 0 12 -7 28 -15 35 -8 7 -15 20
-15 30 0 10 -7 23 -15 30 -8 7 -15 20 -15 30 0 10 -7 23 -15 30 -8 7 -15 21
-15 31 0 10 -4 20 -9 24 -6 3 -21 29 -36 58 -14 28 -29 59 -34 67 -5 8 -12 22
-15 30 -4 8 -15 29 -26 45 -11 17 -22 36 -25 43 -3 6 -7 18 -10 25 -3 6 -14
26 -25 42 -10 17 -31 53 -45 80 -14 28 -34 64 -45 80 -11 17 -24 39 -30 50 -6
11 -19 34 -30 50 -31 49 -48 78 -60 105 -6 13 -14 27 -18 30 -8 6 -27 36 -42
65 -6 11 -19 34 -30 50 -11 17 -24 40 -30 53 -5 12 -14 22 -20 22 -5 0 -10 9
-10 20 0 10 -6 23 -12 27 -15 9 -33 37 -48 71 -5 12 -14 22 -20 22 -5 0 -10 6
-10 14 0 8 -20 41 -45 75 -25 34 -45 63 -45 66 0 2 -24 39 -52 80 -29 42 -57
84 -63 93 -5 10 -22 31 -37 47 -16 17 -28 34 -28 38 0 5 -20 35 -45 67 -25 32
-45 62 -45 67 0 4 -14 21 -30 37 -17 16 -30 33 -30 38 0 5 -26 44 -58 86 -62
81 -105 149 -123 195 -6 15 -15 27 -20 27 -5 0 -9 11 -9 25 0 14 -7 28 -15 31
-8 4 -15 14 -15 23 0 10 -7 26 -15 37 -8 10 -15 28 -15 40 0 11 -7 29 -15 40
-8 10 -15 31 -15 45 0 15 -7 32 -15 39 -8 7 -15 29 -15 49 0 20 -7 49 -15 65
-8 15 -15 54 -15 85 0 31 -7 69 -15 85 -21 39 -21 213 0 263 8 19 15 57 15 83
0 26 7 61 15 76 8 16 15 43 15 59 0 17 7 39 15 49 8 11 15 30 15 42 0 12 7 27
15 34 8 7 15 20 15 30 0 10 7 23 15 30 8 7 15 20 15 30 0 10 7 23 15 30 8 7
15 19 15 27 0 8 14 32 30 53 17 21 30 40 30 43 0 3 19 34 43 69 23 35 48 73
55 84 7 10 15 27 18 37 4 9 10 17 15 17 5 0 14 10 19 23 6 12 19 36 30 52 11
17 24 39 29 50 5 11 20 31 33 45 22 23 39 48 54 80 4 8 25 39 47 68 22 29 50
71 62 94 12 23 32 45 43 49 18 7 27 0 59 -47 21 -31 43 -61 48 -67 6 -7 42
-52 79 -102 38 -49 72 -92 75 -95 4 -3 29 -34 56 -70 27 -36 62 -81 79 -101
17 -20 54 -66 81 -103 28 -36 53 -66 58 -66 4 0 7 -6 7 -13 0 -7 14 -28 32
-47 17 -19 43 -51 57 -71 49 -69 154 -204 166 -214 7 -6 25 -29 41 -51 49 -70
156 -208 181 -233 13 -13 33 -42 45 -63 12 -21 24 -38 28 -38 3 0 33 -36 65
-80 32 -44 62 -80 67 -80 4 0 8 -7 8 -15 0 -9 7 -18 15 -21 8 -4 15 -11 15
-18 0 -6 12 -25 28 -42 47 -52 92 -111 92 -122 0 -6 6 -15 13 -19 7 -4 42 -46
77 -93 35 -47 70 -89 77 -93 7 -4 13 -13 13 -20 0 -7 25 -41 55 -77 30 -35 55
-68 55 -72 0 -4 8 -16 18 -26 33 -33 82 -100 82 -111 0 -7 7 -14 15 -17 8 -4
15 -12 15 -20 0 -8 4 -14 9 -14 5 0 20 -17 32 -37 21 -35 87 -129 124 -178 8
-10 15 -23 15 -27 0 -4 5 -8 11 -8 7 0 18 -8 25 -17 21 -30 28 -6 9 34 -10 21
-21 40 -24 43 -3 3 -26 45 -51 93 -25 48 -68 132 -96 187 -29 55 -55 111 -58
125 -4 14 -11 25 -16 25 -6 0 -10 8 -10 19 0 10 -7 24 -15 31 -8 7 -15 23 -15
37 0 13 -7 26 -15 29 -8 4 -15 14 -15 24 0 10 -7 25 -15 34 -8 8 -15 23 -15
34 0 11 -7 25 -15 32 -8 7 -15 20 -15 30 0 10 -7 23 -15 30 -8 7 -15 20 -15
30 0 10 -7 23 -15 30 -8 7 -15 20 -15 30 0 10 -7 23 -15 30 -8 7 -15 20 -15
30 0 10 -7 23 -15 30 -8 7 -15 23 -15 35 0 12 -7 28 -15 35 -8 7 -15 17 -15
23 0 9 -132 280 -169 347 -5 8 -18 35 -30 60 -34 69 -72 143 -82 160 -5 8 -14
27 -20 43 -6 15 -15 27 -20 27 -5 0 -9 8 -9 19 0 10 -7 24 -15 31 -8 7 -15 20
-15 30 0 10 -7 23 -15 30 -8 7 -15 21 -15 32 0 10 -7 21 -15 24 -8 4 -15 14
-15 24 0 10 -7 23 -15 30 -8 7 -15 20 -15 30 0 10 -7 23 -15 30 -8 7 -15 21
-15 31 0 10 -5 21 -11 24 -5 4 -14 17 -20 28 -5 12 -13 29 -18 37 -5 8 -12 22
-15 30 -4 8 -15 29 -26 45 -11 17 -23 37 -26 45 -3 8 -8 20 -10 25 -2 6 -13
24 -23 40 -11 17 -32 54 -47 83 -15 28 -31 52 -36 52 -4 0 -8 8 -8 19 0 10 -7
24 -15 31 -8 7 -15 21 -15 32 0 10 -7 21 -15 24 -8 4 -15 14 -15 24 0 11 -5
22 -11 25 -5 4 -15 17 -20 28 -5 12 -18 36 -29 52 -11 17 -25 42 -31 58 -6 15
-15 27 -19 27 -4 0 -11 11 -14 25 -4 14 -11 25 -16 25 -6 0 -10 6 -10 14 0 7
-7 19 -15 26 -8 7 -15 19 -15 26 0 8 -19 42 -43 77 -24 34 -46 69 -50 77 -4 8
-16 29 -27 45 -11 17 -23 37 -27 45 -4 8 -26 43 -50 78 -24 35 -43 66 -43 69
0 3 -12 22 -27 42 -16 20 -32 43 -38 52 -36 60 -99 149 -104 149 -4 0 -24 27
-45 60 -21 33 -43 60 -48 60 -5 0 -13 10 -18 23 -5 13 -9 16 -9 6z m63 -204
c19 -19 47 -56 62 -82 15 -27 40 -64 56 -84 15 -20 28 -43 28 -51 0 -7 9 -21
19 -30 10 -9 38 -49 61 -90 24 -40 63 -104 88 -143 25 -38 61 -99 80 -135 19
-36 37 -69 42 -75 9 -12 23 -36 138 -240 46 -82 88 -154 93 -160 5 -5 9 -16 9
-23 0 -8 15 -38 33 -66 18 -28 51 -87 72 -131 22 -44 47 -89 57 -100 11 -11
22 -31 25 -45 3 -14 14 -36 25 -49 10 -13 18 -30 18 -38 0 -8 17 -40 37 -71
20 -31 45 -79 55 -106 10 -27 24 -56 32 -65 19 -23 196 -386 196 -405 0 -8 5
-18 10 -21 16 -10 60 -102 60 -124 0 -11 5 -23 10 -26 13 -8 53 -86 47 -91
-13 -14 -59 13 -81 47 -15 21 -30 39 -35 39 -4 0 -28 28 -52 61 -24 34 -75
102 -114 151 -38 49 -90 116 -115 148 -25 33 -54 71 -65 84 -21 24 -54 66
-184 226 -30 38 -138 179 -210 275 -25 33 -62 77 -83 98 -21 21 -38 44 -38 51
0 7 -10 24 -22 37 -44 47 -154 184 -185 229 -32 47 -111 126 -174 173 -61 46
-105 33 -182 -55 -26 -29 -56 -63 -68 -75 -28 -29 -89 -116 -89 -126 0 -5 -20
-35 -44 -67 -25 -32 -52 -74 -62 -92 -9 -18 -28 -47 -40 -64 -13 -17 -24 -36
-24 -41 0 -6 -6 -13 -12 -16 -7 -3 -29 -34 -48 -71 -19 -36 -37 -66 -41 -66
-3 0 -25 -37 -49 -82 -23 -46 -48 -90 -54 -98 -7 -8 -18 -33 -25 -55 -7 -22
-21 -58 -30 -80 -35 -80 -52 -162 -70 -340 -10 -96 -8 -215 2 -232 4 -6 12
-58 18 -114 7 -68 17 -114 29 -134 10 -16 23 -56 29 -89 11 -62 96 -248 155
-341 20 -30 36 -59 36 -64 0 -5 15 -27 33 -49 17 -23 43 -57 57 -77 14 -20 39
-53 55 -74 17 -21 41 -57 55 -81 14 -23 37 -56 53 -73 15 -16 27 -34 27 -39 0
-5 17 -30 38 -57 34 -44 59 -83 117 -177 39 -64 94 -141 109 -153 9 -8 16 -19
16 -26 0 -8 16 -34 35 -59 19 -26 35 -49 35 -52 0 -2 18 -33 40 -66 22 -34 40
-67 40 -74 0 -6 14 -25 30 -42 17 -18 30 -39 30 -48 0 -9 14 -32 30 -51 17
-18 30 -42 30 -53 0 -10 5 -22 10 -25 14 -9 60 -82 60 -95 0 -6 11 -26 24 -43
14 -18 33 -53 44 -78 11 -25 41 -80 66 -122 25 -42 46 -78 46 -82 0 -3 20 -41
45 -85 25 -44 45 -85 45 -92 0 -7 18 -44 40 -82 22 -37 40 -73 40 -80 0 -6 29
-71 65 -144 36 -73 65 -141 65 -151 0 -10 7 -24 15 -31 8 -7 15 -19 15 -28 0
-14 25 -73 56 -134 8 -14 14 -35 14 -45 0 -10 4 -23 10 -29 5 -5 25 -52 44
-104 19 -52 48 -131 65 -175 17 -44 31 -84 31 -90 0 -5 20 -50 44 -100 60
-124 67 -147 77 -250 11 -125 17 -181 33 -325 20 -183 21 -196 20 -420 0 -191
-2 -208 -22 -245 -12 -22 -22 -45 -22 -51 0 -17 -58 -142 -70 -149 -5 -3 -10
-13 -10 -21 0 -9 -20 -58 -45 -111 -25 -52 -45 -96 -45 -98 0 -2 -13 -27 -30
-55 -16 -28 -30 -57 -30 -65 0 -7 -4 -15 -9 -17 -4 -1 -27 -41 -51 -88 -54
-108 -70 -138 -96 -175 -11 -16 -25 -41 -32 -55 -6 -14 -16 -32 -22 -40 -31
-47 -90 -152 -90 -158 0 -5 -70 -113 -155 -242 -85 -128 -155 -238 -155 -244
0 -6 -9 -17 -20 -24 -11 -6 -31 -33 -44 -59 -13 -27 -33 -57 -43 -68 -10 -11
-39 -49 -63 -84 -143 -206 -206 -289 -252 -336 -11 -11 -52 -63 -90 -115 -39
-52 -92 -117 -118 -145 -26 -27 -73 -81 -105 -120 -50 -62 -85 -101 -233 -264
-76 -84 -385 -402 -482 -495 -57 -56 -141 -136 -185 -178 -44 -43 -94 -91
-110 -108 -17 -17 -42 -38 -57 -48 -14 -9 -82 -66 -151 -127 -150 -133 -168
-147 -241 -205 -31 -25 -82 -67 -114 -94 -31 -26 -73 -59 -92 -72 -19 -13 -78
-58 -130 -99 -52 -42 -117 -91 -145 -109 -27 -19 -61 -45 -74 -59 -13 -14 -36
-29 -52 -32 -16 -4 -31 -10 -34 -15 -7 -11 -104 -84 -160 -121 -22 -15 -73
-49 -114 -75 -40 -27 -79 -52 -85 -56 -183 -112 -251 -151 -358 -204 -47 -24
-103 -55 -124 -69 -20 -14 -45 -25 -55 -25 -10 0 -39 -13 -65 -30 -26 -16 -69
-37 -97 -46 -27 -9 -66 -27 -86 -41 -34 -23 -86 -28 -86 -8 0 6 15 17 32 25
18 8 33 20 33 26 0 15 55 74 68 74 6 0 24 12 39 26 30 28 120 98 159 125 13 8
40 30 61 48 47 39 183 148 225 178 45 33 111 88 208 170 47 40 101 86 120 103
91 76 382 338 512 460 32 30 66 62 75 70 54 47 266 255 321 315 36 39 108 117
161 174 53 58 120 130 150 160 29 31 62 73 72 93 11 21 28 42 39 48 11 6 20
19 20 29 0 10 18 55 40 100 22 44 40 84 40 88 0 5 7 22 16 38 42 77 64 273 44
385 -6 36 -12 74 -14 85 -7 43 -29 110 -42 129 -8 11 -14 28 -14 37 0 9 -7 22
-16 29 -8 8 -21 27 -28 44 -28 63 -218 244 -331 315 -75 46 -275 141 -298 141
-9 0 -22 6 -29 13 -23 20 -102 57 -124 57 -12 0 -27 7 -34 15 -7 8 -21 15 -31
15 -10 0 -50 12 -90 26 -87 31 -248 73 -309 80 -25 2 -85 5 -133 5 -79 0 -95
-4 -148 -31 -97 -49 -200 -124 -271 -197 -80 -82 -215 -238 -245 -285 -13 -18
-45 -67 -73 -108 -27 -41 -64 -94 -81 -118 -29 -39 -81 -127 -95 -162 -18 -45
-42 -89 -65 -120 -14 -19 -31 -49 -38 -67 -7 -17 -29 -47 -49 -66 -21 -19 -47
-45 -59 -58 -76 -81 -231 -178 -288 -179 -11 -1 -38 -7 -60 -15 -69 -25 -194
-29 -287 -9 -46 9 -87 21 -93 25 -5 5 -17 9 -27 9 -62 0 -260 167 -301 252
-10 20 -21 40 -26 42 -45 28 -115 278 -120 433 -2 40 -10 67 -36 110 -19 32
-43 74 -54 93 -11 19 -32 49 -48 66 -38 43 -45 54 -103 170 -27 55 -50 113
-50 128 0 15 -6 39 -14 54 -17 33 -30 202 -17 221 12 19 77 8 105 -18 34 -31
191 -78 286 -86 154 -12 212 -10 260 12 59 26 150 116 179 175 12 27 27 50 32
54 5 3 9 19 9 35 0 16 10 49 22 72 20 39 21 57 21 252 0 133 -4 227 -12 255
-6 25 -13 63 -15 85 -6 61 -23 149 -35 187 -29 87 -51 172 -51 193 0 13 -4 26
-9 30 -5 3 -13 20 -16 38 -19 85 -121 203 -218 252 -28 14 -70 37 -92 50 -22
13 -47 27 -55 30 -8 3 -46 21 -85 39 -143 69 -204 96 -212 96 -4 0 -19 9 -33
20 -14 11 -36 20 -50 20 -14 0 -43 9 -64 19 -21 11 -52 23 -69 27 -18 3 -38
11 -45 17 -7 5 -29 13 -50 17 -20 5 -61 13 -91 19 -30 6 -59 15 -65 20 -6 4
-45 12 -86 16 -41 4 -91 9 -110 11 -19 2 -72 5 -118 7 -103 5 -148 -14 -204
-89 -33 -43 -37 -54 -32 -89 8 -57 42 -162 70 -218 13 -26 24 -52 24 -58 0 -6
13 -31 30 -55 41 -62 46 -88 22 -112 -22 -22 -23 -22 -132 9 -60 17 -241 111
-270 141 -16 15 -33 28 -39 28 -11 0 -77 54 -171 140 -30 27 -71 63 -90 80
-19 17 -44 39 -55 49 -11 10 -45 34 -76 54 -113 71 -258 242 -364 431 -16 29
-38 61 -48 70 -9 10 -17 25 -17 35 0 10 -11 28 -25 41 -14 13 -25 33 -25 46 0
12 -7 27 -14 34 -8 6 -23 33 -32 58 -10 26 -26 58 -36 71 -10 13 -18 30 -18
38 0 8 -11 29 -24 46 -33 44 -118 227 -145 312 -37 114 -40 127 -50 199 -8 59
-8 71 5 81 13 9 13 15 3 38 -10 21 -10 30 -1 39 7 7 12 27 12 46 0 48 48 126
117 192 61 58 116 100 131 100 5 0 20 8 33 18 13 10 44 24 69 32 25 7 50 18
57 23 6 4 39 15 73 23 34 8 93 28 132 44 38 17 74 30 79 30 5 0 55 22 112 49
56 27 109 51 117 55 8 3 22 10 30 15 8 4 58 30 110 56 52 26 102 53 110 60 8
7 35 23 60 36 25 13 63 38 85 55 22 17 74 53 115 80 90 57 311 275 362 355 20
31 48 66 64 78 15 12 35 34 44 49 18 28 129 150 235 258 85 87 233 214 249
214 8 0 21 11 30 25 9 14 34 33 54 42 20 10 48 27 62 39 14 12 81 50 150 84
69 34 134 67 145 73 120 64 211 107 226 107 11 0 19 4 19 9 0 4 35 24 78 44
42 20 84 41 92 46 8 5 56 28 105 51 124 58 563 278 600 300 17 10 46 21 65 25
19 4 42 15 50 24 8 10 35 26 60 36 25 10 67 29 94 42 28 12 55 23 62 23 6 0
28 14 49 30 21 17 50 33 64 37 14 3 37 13 51 22 28 19 156 74 210 90 19 6 63
20 98 31 35 11 91 24 125 31 34 6 89 20 121 31 33 11 82 21 109 24 26 2 54 7
60 11 7 4 37 11 67 14 30 4 82 12 115 18 190 34 520 48 744 29 68 -5 138 -7
156 -4 60 12 140 97 203 216 16 30 39 73 52 95 13 22 43 76 68 120 24 44 50
87 57 95 7 8 22 33 33 55 11 22 29 49 41 59 12 11 21 25 21 32 0 8 16 34 35
60 19 25 35 49 35 53 0 5 29 52 65 106 36 53 65 102 65 107 0 6 16 28 35 49
19 22 35 43 35 48 0 10 57 100 92 145 12 16 31 46 41 65 11 20 31 52 46 71 14
19 45 64 68 100 63 98 86 130 112 156 13 13 43 54 68 91 24 37 47 70 51 73 4
3 23 28 42 55 19 28 70 94 114 148 93 113 112 120 170 62z m137 -1776 c44 -23
99 -72 115 -103 46 -88 54 -108 54 -146 0 -22 -9 -58 -20 -80 -11 -22 -20 -46
-20 -55 0 -17 -52 -75 -67 -75 -5 0 -20 -11 -32 -24 -12 -13 -54 -34 -92 -46
-66 -21 -70 -22 -110 -6 -51 21 -86 46 -144 106 -55 56 -70 106 -61 201 7 77
17 102 53 136 12 12 23 28 23 35 0 7 28 28 63 45 57 30 68 33 138 29 42 -2 87
-10 100 -17z m-177 -1321 c20 -28 20 -61 1 -99 -13 -25 -19 -28 -35 -19 -29
15 -53 56 -46 78 7 22 43 62 56 62 5 0 16 -10 24 -22z m1165 -188 c35 -6 71
-15 80 -19 9 -5 34 -16 55 -25 44 -19 79 -44 139 -99 23 -21 49 -45 58 -53 9
-9 30 -41 47 -72 89 -171 80 -355 -27 -540 -22 -38 -129 -142 -146 -142 -7 0
-20 -9 -30 -20 -10 -11 -24 -20 -32 -20 -7 0 -46 -16 -85 -35 -39 -20 -81 -35
-92 -35 -46 0 -152 17 -176 27 -14 6 -51 19 -82 28 -32 9 -58 21 -58 26 0 6
-15 16 -32 24 -84 35 -200 207 -227 333 -18 85 -14 200 9 251 11 24 20 52 20
63 0 32 29 78 83 132 58 58 184 146 208 146 9 0 34 7 55 16 45 19 120 33 149
28 11 -2 49 -8 84 -14z"/>
<path d="M7160 29550 c0 -12 110 -12 155 0 21 5 2 8 -62 9 -56 1 -93 -3 -93
-9z"/>
<path d="M7714 29551 c3 -5 22 -12 42 -16 20 -3 45 -12 55 -18 27 -17 34 -2
10 22 -15 15 -34 21 -67 21 -25 0 -43 -4 -40 -9z"/>
<path d="M7065 29531 c-3 -5 -1 -12 5 -16 12 -7 30 2 30 16 0 12 -27 12 -35 0z"/>
<path d="M6975 29520 c3 -5 15 -10 25 -10 10 0 22 5 25 10 4 6 -7 10 -25 10
-18 0 -29 -4 -25 -10z"/>
<path d="M6780 29490 c0 -12 37 -12 65 0 15 7 10 9 -22 9 -24 1 -43 -3 -43 -9z"/>
<path d="M7850 29492 c0 -10 33 -42 43 -42 4 0 7 5 7 10 0 6 -7 10 -15 10 -8
0 -15 7 -15 15 0 8 -4 15 -10 15 -5 0 -10 -4 -10 -8z"/>
<path d="M6640 29460 c0 -12 44 -12 80 0 20 6 14 8 -27 9 -29 1 -53 -3 -53 -9z"/>
<path d="M6250 29340 c0 -5 6 -10 14 -10 8 0 18 5 21 10 3 6 -3 10 -14 10 -12
0 -21 -4 -21 -10z"/>
<path d="M5200 28099 c-14 -6 -42 -8 -62 -5 -22 4 -40 2 -44 -5 -3 -6 -15 -9
-25 -6 -10 3 -40 -1 -66 -9 -25 -8 -65 -14 -89 -14 -28 0 -46 -5 -51 -15 -5
-8 -38 -24 -73 -34 -68 -19 -185 -75 -196 -92 -3 -6 -25 -19 -48 -30 -74 -35
-183 -130 -247 -216 -44 -59 -48 -73 -19 -73 11 0 20 4 20 8 0 8 95 82 105 82
4 0 13 7 22 15 26 27 175 121 243 155 36 17 78 38 93 46 16 8 33 14 39 14 5 0
24 6 41 13 120 52 301 82 430 72 56 -4 116 -8 134 -9 63 -3 62 -21 -4 -83 -33
-32 -104 -110 -159 -173 -54 -63 -108 -124 -120 -135 -30 -29 -224 -261 -267
-320 -20 -27 -41 -55 -46 -62 -6 -6 -13 -23 -17 -37 -3 -14 -10 -26 -15 -26
-5 0 -9 -4 -9 -10 0 -5 15 -1 33 9 85 49 97 57 97 64 0 12 86 97 99 97 6 0 17
13 26 30 8 16 24 34 35 40 11 6 27 24 35 41 9 16 27 34 41 39 13 5 28 18 32
29 4 11 31 45 60 75 28 31 52 60 52 64 0 4 34 41 75 82 42 41 81 86 89 100 7
14 26 47 41 73 18 31 25 56 21 71 -15 59 -97 118 -182 129 -27 4 -60 9 -74 12
-14 2 -36 0 -50 -6z"/>
<path d="M5145 27909 c-27 -5 -79 -13 -115 -18 -36 -5 -76 -13 -90 -19 -14 -5
-58 -20 -98 -32 -40 -12 -75 -26 -78 -31 -3 -5 -12 -9 -21 -9 -21 0 -223 -99
-223 -109 0 -19 34 -120 57 -170 14 -30 45 -73 68 -95 57 -54 62 -58 116 -89
l46 -27 49 72 c45 67 225 309 249 334 5 6 29 33 52 60 23 27 57 67 77 88 19
22 33 43 30 48 -6 10 -51 8 -119 -3z m-155 -156 c0 -18 -36 -77 -89 -148 -17
-22 -40 -58 -52 -81 -29 -56 -70 -71 -111 -41 -49 36 -74 87 -70 142 5 52 -5
45 147 103 44 17 98 33 120 35 22 2 43 4 48 5 4 1 7 -6 7 -15z"/>
<path d="M4405 27622 c-32 -26 -70 -57 -84 -69 l-24 -23 31 -6 c21 -4 32 -13
36 -30 4 -13 15 -28 26 -34 11 -6 20 -15 20 -21 0 -13 89 -139 99 -139 4 0 24
-16 45 -35 21 -19 45 -35 53 -35 8 0 34 -11 58 -26 57 -33 75 -23 111 62 3 7
-14 13 -43 17 -60 7 -104 29 -163 84 -71 66 -95 121 -94 221 0 45 -2 82 -5 82
-3 0 -33 -21 -66 -48z"/>
<path d="M2385 26680 c-3 -5 -16 -10 -28 -10 -13 0 -40 -9 -62 -20 -22 -11
-46 -20 -54 -20 -8 0 -25 -10 -38 -22 -34 -31 -142 -39 -170 -11 -15 15 -33
18 -98 18 -91 -1 -125 -15 -174 -70 -26 -30 -31 -44 -31 -88 0 -29 4 -68 10
-87 12 -43 82 -125 159 -185 31 -25 63 -52 72 -61 18 -16 128 -46 141 -38 13
8 9 24 -6 24 -39 0 -278 267 -298 332 -10 34 -9 42 9 66 24 32 61 39 102 18
16 -9 41 -16 54 -16 14 0 41 -7 60 -15 20 -8 67 -15 105 -15 59 0 73 4 102 28
49 38 116 106 136 136 9 15 23 26 30 26 8 0 14 5 14 10 0 6 -6 10 -14 10 -8 0
-18 -4 -21 -10z"/>
<path d="M2437 26644 c-4 -4 -7 -16 -7 -26 0 -10 -4 -18 -8 -18 -5 0 -23 -21
-42 -46 -47 -66 -110 -128 -149 -147 -44 -22 -168 -23 -218 -2 -37 16 -93 20
-93 8 0 -12 141 -191 193 -245 9 -10 17 -25 17 -33 0 -8 5 -15 11 -15 8 0 10
20 5 69 -7 64 -6 70 13 76 19 6 23 12 20 32 -1 10 23 20 66 27 46 8 125 75
167 141 33 53 55 137 42 165 -5 12 -13 18 -17 14z"/>
<path d="M4980 21790 c0 -5 11 -10 25 -10 14 0 25 5 25 10 0 6 -11 10 -25 10
-14 0 -25 -4 -25 -10z"/>
<path d="M8255 21429 c-10 -15 3 -25 16 -12 7 7 7 13 1 17 -6 3 -14 1 -17 -5z"/>
<path d="M8207 21348 c-13 -13 -16 -23 -9 -30 6 -6 15 1 25 21 18 35 11 39
-16 9z"/>
<path d="M8285 21304 c-9 -14 -14 -28 -11 -31 3 -3 8 2 12 11 3 9 12 16 20 16
8 0 14 7 14 15 0 23 -16 18 -35 -11z"/>
<path d="M8160 21270 c0 -5 -7 -10 -15 -10 -8 0 -15 -5 -15 -10 0 -6 -21 -33
-47 -59 -27 -27 -68 -72 -93 -101 -53 -62 -576 -580 -585 -580 -2 0 -22 -18
-44 -40 -43 -43 -34 -56 11 -15 15 14 31 25 35 25 5 0 20 10 33 23 14 12 55
47 90 77 36 30 83 71 105 91 22 20 85 76 139 124 55 48 149 135 210 194 188
183 230 221 238 221 4 0 8 5 8 11 0 7 8 18 17 25 10 7 15 15 12 19 -9 9 -79
-35 -79 -50 0 -15 -43 -45 -65 -45 -22 0 -18 12 15 40 17 13 30 30 30 37 0 7
5 13 10 13 6 0 10 5 10 10 0 6 -4 10 -10 10 -5 0 -10 -4 -10 -10z"/>
</g>
</svg>
